<svg width="161" height="149" viewBox="0 0 161 149" fill="none" xmlns="http://www.w3.org/2000/svg">
<path d="M55.6302 0.402634C36.3715 3.75092 20.6709 12.5401 10.618 25.7937C6.0998 31.723 3.55833 36.7454 1.58164 43.7907C-0.564492 51.2546 -0.508015 61.2994 1.63811 69.1121C2.48527 72.1813 4.1231 76.5759 5.25265 78.8779C7.79411 84.0398 14.6278 92.6895 19.2025 96.4563C27.674 103.502 39.7601 109.291 50.7167 111.593C53.1452 112.151 53.3146 113.058 51.7333 117.383C50.3213 121.15 46.7633 125.475 43.3182 127.637C39.8166 129.869 38.9695 131.822 40.7202 133.915C41.3415 134.752 42.7534 135.031 46.0291 135.031C63.8758 135.031 79.8024 126.451 86.8055 113.128C89.234 108.454 89.4599 106.92 87.7656 105.525C86.1278 104.06 84.5464 104.827 83.3039 107.757C80.2542 115.081 73.5334 121.359 65.0054 124.917C62.351 125.963 54.4442 128.056 52.9758 128.056C52.5804 128.056 53.3146 126.242 54.5006 124.08C55.7431 121.917 57.1551 118.569 57.6069 116.616C58.567 112.709 58.7364 107.408 57.9457 106.85C57.6634 106.571 55.1784 105.943 52.411 105.385C44.7866 103.711 37.8399 101.06 31.571 97.4329C18.8636 89.969 11.5216 81.3891 7.05991 68.7633C5.81742 65.415 5.64798 63.8804 5.64798 56.556C5.64798 46.5809 6.55162 43.0932 11.1827 35.141C18.0729 23.2825 30.159 14.284 45.6902 9.47088C75.5666 0.123596 110.074 11.4938 123.798 35.141C127.921 42.2561 129.163 46.6507 129.502 55.1609C129.672 61.0204 129.502 62.834 128.486 66.6706C126.17 75.3203 121.934 82.2959 114.875 88.9924C110.3 93.3871 109.622 94.8519 111.317 96.9446C112.728 98.6885 113.802 98.27 117.811 94.5729C125.436 87.5276 131.084 78.1803 133.681 68.4145C135.545 61.2994 135.432 50.9058 133.399 43.7907C127.695 23.7011 110.469 8.14552 87.2009 2.14653C81.4967 0.681656 78.2775 0.263123 69.7495 0.0538635C63.9888 -0.0856476 57.6634 0.0538483 55.6302 0.402634Z" fill="#FBC02C"/>
<path d="M127.412 23.5548C128.994 25.5777 130.688 28.0889 131.196 29.1352C131.704 30.1816 132.439 31.2279 132.834 31.3674C134.585 32.2045 141.814 38.5523 144.638 41.6913C148.648 46.2952 153.053 54.4566 154.465 60.1068C155.707 65.199 155.933 73.2906 154.973 78.4526C154.239 82.6379 151.471 89.2647 148.648 93.7988C141.362 105.518 125.21 115.772 108.549 119.329C105.781 119.887 103.296 120.515 103.014 120.794C102.223 121.352 102.393 126.375 103.353 130.49C103.861 132.513 105.217 135.931 106.459 138.094C107.984 140.814 108.436 142 107.871 142C105.669 142 95.6156 138.861 92.6223 137.257C88.8384 135.234 83.586 131.048 81.9482 128.816L80.8751 127.351L78.729 128.886C77.4865 129.723 76.5264 130.63 76.5264 130.909C76.5264 131.188 77.9948 133.071 79.802 135.024C83.699 139.349 91.6057 144.302 97.4794 146.116C106.911 149.045 118.545 149.952 120.24 147.86C121.877 145.837 121.143 143.814 118.093 141.861C114.253 139.489 111.147 135.931 109.622 132.095C107.589 127.072 107.702 126.096 110.3 125.538C121.2 123.236 133.342 117.376 141.757 110.401C143.621 108.866 146.953 105.378 149.156 102.658C161.976 86.893 164.574 66.5243 156.046 48.6668C151.415 39.0406 140.684 28.2284 130.123 22.648C127.356 21.1133 124.984 19.9275 124.814 19.9275C124.701 19.9275 125.831 21.6016 127.412 23.5548Z" fill="#FBC02C"/>
<path d="M51.9054 25.0145L50.2676 26.7584V56.8929V87.0274L51.9054 88.7712C53.2044 90.0966 53.9951 90.4454 55.407 90.1664C57.6661 89.6781 95.5622 63.0314 97.313 60.6597C98.8943 58.4275 98.8943 55.3582 97.313 53.126C95.5622 50.7543 57.7226 24.1076 55.407 23.6194C53.9951 23.3403 53.2044 23.6891 51.9054 25.0145Z" fill="#FBC02C"/>
</svg>
